<svg xmlns="http://www.w3.org/2000/svg" viewBox="0 0 1200 630" role="img" aria-label="Open SEO Growth preview">
  <rect width="1200" height="630" fill="#f7f8f5"/>
  <rect x="56" y="56" width="1088" height="518" rx="24" fill="#ffffff" stroke="#dce3dd" stroke-width="2"/>
  <rect x="88" y="88" width="196" height="454" rx="18" fill="#151917"/>
  <rect x="120" y="120" width="58" height="58" rx="14" fill="#19b879"/>
  <text x="193" y="145" fill="#ffffff" font-family="Inter, Arial, sans-serif" font-size="24" font-weight="800">Open SEO Growth</text>
  <text x="193" y="176" fill="#b7c3bc" font-family="Inter, Arial, sans-serif" font-size="16">GA4 + Search Console</text>
  <rect x="120" y="230" width="132" height="34" rx="8" fill="#26302b"/>
  <rect x="120" y="286" width="105" height="16" rx="8" fill="#3d4942"/>
  <rect x="120" y="324" width="132" height="16" rx="8" fill="#3d4942"/>
  <text x="330" y="153" fill="#141615" font-family="Inter, Arial, sans-serif" font-size="58" font-weight="850">Search growth, measured from the source.</text>
  <text x="332" y="206" fill="#68706b" font-family="Inter, Arial, sans-serif" font-size="26">Instant audit first. Google setup when ready. Growth dashboard after data connects.</text>
  <rect x="332" y="260" width="360" height="116" rx="16" fill="#f7f8f5" stroke="#dce3dd"/>
  <text x="360" y="302" fill="#68706b" font-family="Inter, Arial, sans-serif" font-size="17" font-weight="700">CLICKS</text>
  <text x="360" y="350" fill="#141615" font-family="Inter, Arial, sans-serif" font-size="50" font-weight="850">423</text>
  <rect x="720" y="260" width="360" height="116" rx="16" fill="#f7f8f5" stroke="#dce3dd"/>
  <text x="748" y="302" fill="#68706b" font-family="Inter, Arial, sans-serif" font-size="17" font-weight="700">IMPRESSIONS</text>
  <text x="748" y="350" fill="#141615" font-family="Inter, Arial, sans-serif" font-size="50" font-weight="850">38.2K</text>
  <rect x="332" y="402" width="748" height="110" rx="16" fill="#151917"/>
  <text x="362" y="446" fill="#ffffff" font-family="Inter, Arial, sans-serif" font-size="25" font-weight="800">Low-hanging ranking wins</text>
  <rect x="362" y="466" width="660" height="12" rx="6" fill="#334039"/>
  <rect x="362" y="492" width="540" height="12" rx="6" fill="#19b879"/>
</svg>

